<svg width="865" height="1157" viewBox="0 0 865 1157" fill="none" xmlns="http://www.w3.org/2000/svg">
<rect x="561.771" y="531.277" width="119.994" height="796.813" rx="59.997" transform="rotate(44.8314 561.771 531.277)" fill="#F00000"/>
<path d="M614.241 855.155C593.264 829.504 597.053 791.706 622.704 770.729C648.354 749.753 686.153 753.542 707.129 779.193L825.654 924.127C846.63 949.778 842.841 987.576 817.19 1008.55C791.54 1029.53 753.741 1025.74 732.765 1000.09L614.241 855.155Z" fill="#00AB47"/>
<rect x="719.458" y="25.1802" width="119.994" height="996.685" rx="59.997" fill="#00C950"/>
<rect x="779.576" width="119.994" height="799.352" rx="59.997" transform="rotate(44.8314 779.576 0)" fill="#0AA286"/>
<path d="M38.5153 258.321C17.2695 232.893 20.6597 195.057 46.0874 173.811C71.5152 152.565 109.352 155.956 130.597 181.383L247.72 321.559C268.965 346.987 265.575 384.824 240.148 406.069C214.72 427.315 176.883 423.925 155.638 398.497L38.5153 258.321Z" fill="#FF7E00"/>
<rect x="24.7915" y="159.049" width="119.994" height="996.685" rx="59.997" fill="#FF9400"/>
</svg>
