<svg width="28" height="39" viewBox="0 0 28 39" fill="none" xmlns="http://www.w3.org/2000/svg">
<rect width="28" height="39" fill="black"/>
<g id="LP">
<path d="M-253 -106C-253 -107.105 -252.105 -108 -251 -108H6405C6406.1 -108 6407 -107.105 6407 -106V1697C6407 1698.1 6406.1 1699 6405 1699H-251C-252.105 1699 -253 1698.1 -253 1697V-106Z" fill="#404040"/>
<g id="Desktop - 1">
<rect width="1366" height="1737" transform="translate(-85 -73)" fill="url(#paint0_linear_0_1)"/>
<g id="Group 1">
<path id="Rectangle 7" d="M19.8906 27.6918C19.2113 26.8612 19.334 25.6372 20.1646 24.958V24.958C20.9952 24.2787 22.2192 24.4014 22.8985 25.232L26.7366 29.9253C27.4159 30.7559 27.2932 31.98 26.4625 32.6592V32.6592C25.6319 33.3385 24.4079 33.2158 23.7286 32.3852L19.8906 27.6918Z" fill="#00AB47"/>
<rect id="Rectangle 4" x="23.2974" y="0.81543" width="3.88568" height="32.2749" rx="1.94284" fill="#00C950"/>
<rect id="Rectangle 5" x="25.2441" width="3.88568" height="25.8848" rx="1.94284" transform="rotate(44.8314 25.2441 0)" fill="#0AA286"/>
<path id="Rectangle 8" d="M1.24717 8.36506C0.559187 7.54165 0.66897 6.31642 1.49238 5.62843V5.62843C2.31579 4.94045 3.54102 5.05023 4.229 5.87363L8.02169 10.4129C8.70968 11.2363 8.5999 12.4615 7.77649 13.1495V13.1495C6.95308 13.8375 5.72785 13.7277 5.03986 12.9043L1.24717 8.36506Z" fill="#FF7E00"/>
<rect id="Rectangle 3" x="0.802734" y="5.15039" width="3.88568" height="32.2749" rx="1.94284" fill="#FF9400"/>
<rect id="Rectangle 6" x="18.1914" y="17.204" width="3.88568" height="25.8026" rx="1.94284" transform="rotate(44.8314 18.1914 17.204)" fill="#F00000"/>
</g>
</g>
<path d="M-251 -107H6405V-109H-251V-107ZM6406 -106V1697H6408V-106H6406ZM6405 1698H-251V1700H6405V1698ZM-252 1697V-106H-254V1697H-252ZM-251 1698C-251.552 1698 -252 1697.55 -252 1697H-254C-254 1698.66 -252.657 1700 -251 1700V1698ZM6406 1697C6406 1697.55 6405.55 1698 6405 1698V1700C6406.66 1700 6408 1698.66 6408 1697H6406ZM6405 -107C6405.55 -107 6406 -106.552 6406 -106H6408C6408 -107.657 6406.66 -109 6405 -109V-107ZM-251 -109C-252.657 -109 -254 -107.657 -254 -106H-252C-252 -106.552 -251.552 -107 -251 -107V-109Z" fill="white" fill-opacity="0.1"/>
</g>
<defs>
<linearGradient id="paint0_linear_0_1" x1="683" y1="0" x2="683" y2="1808.19" gradientUnits="userSpaceOnUse">
<stop offset="0.161458" stop-color="#0C0C0B" stop-opacity="0.958333"/>
<stop offset="0.5625" stop-color="#1E1F20"/>
<stop offset="1" stop-color="#1E1E20" stop-opacity="0"/>
</linearGradient>
</defs>
</svg>
